<svg version="1.1" viewBox="0 0 840 595" xmlns="http://www.w3.org/2000/svg" xmlns:xlink="http://www.w3.org/1999/xlink">
    <defs>
        <symbol id="logo_prime" viewBox="0 0 331.111 105.89">
            <g fill="#003DA6">
                <path d="M122.377,19.604c-2.817-1.014-6.176-1.527-9.983-1.527H92.722c-0.4,0-0.714,0.102-0.957,0.314c-0.246,0.213-0.363,0.482-0.363,0.832v39.7c0,0.316,0.122,0.584,0.371,0.813c0.246,0.23,0.557,0.34,0.949,0.34h9.483c0.405,0,0.722-0.109,0.995-0.348c0.269-0.232,0.398-0.492,0.398-0.805V45.172h8.795c3.806,0,7.166-0.482,9.99-1.438c2.783-0.943,4.984-2.418,6.545-4.387c1.557-1.959,2.348-4.496,2.348-7.541c0-3.084-0.793-5.664-2.35-7.668C127.358,22.127,125.156,20.604,122.377,19.604z M117.136,36.064c-1.27,0.949-2.983,1.432-5.095,1.432h-8.654V25.811h8.654c2.46,0,4.27,0.58,5.384,1.723c1.094,1.115,1.648,2.516,1.648,4.154C119.074,33.621,118.422,35.094,117.136,36.064z"/>
                <path d="M179.204,59.79c0.225-0.193,0.333-0.395,0.333-0.619c0-0.146-0.056-0.314-0.163-0.502l-9.849-15.376l0.434-0.166c2.539-0.98,4.606-2.457,6.145-4.389c1.532-1.92,2.307-4.313,2.307-7.115c0-4.295-1.695-7.658-5.037-10-3.369-2.354-8.099-3.547-14.055-3.547h-19.109c-0.399,0-0.713,0.102-0.957,0.314c-0.242,0.213-0.364,0.484-0.364,0.832v39.7c0,0.316,0.124,0.582,0.372,0.813s0.558,0.34,0.949,0.34h9.062c0.402,0,0.729-0.115,0.997-0.348c0.267-0.234,0.398-0.494,0.398-0.805V44.988h7.862l0.122,0.205l8.006,13.435c0.166,0.289,0.447,0.621,0.841,0.988c0.339,0.309,0.88,0.459,1.652,0.459h9.347C178.753,60.075,178.979,59.985,179.204,59.79z M164.427,35.557c-1.174,1.004-2.939,1.514-5.244,1.514h-8.518v-11.26h8.518c2.405,0,4.2,0.535,5.333,1.586c1.126,1.047,1.698,2.428,1.698,4.104C166.214,33.188,165.613,34.551,164.427,35.557z"/>
                <path d="M199.152,59.729c0.27-0.23,0.399-0.494,0.399-0.807v-39.7c0-0.346-0.126-0.613-0.386-0.824c-0.268-0.217-0.594-0.322-1.002-0.322h-9.416c-0.4,0-0.713,0.102-0.959,0.314c-0.242,0.213-0.359,0.482-0.359,0.832v39.7c0,0.316,0.121,0.584,0.371,0.813c0.244,0.23,0.557,0.34,0.947,0.34h9.416C198.563,60.075,198.886,59.96,199.152,59.729z"/>
                <path d="M256.255,18.076h-7.516c-0.661,0-1.134,0.131-1.4,0.391c-0.412,0.402-0.599,0.641-0.687,0.768l-12.739,19.818l-12.74-19.822c-0.065-0.137-0.199-0.348-0.637-0.754c-0.291-0.268-0.777-0.4-1.443-0.4h-7.59c-0.359,0-0.661,0.105-0.933,0.322c-0.263,0.215-0.386,0.475-0.386,0.824v39.7c0,0.313,0.13,0.576,0.395,0.803c0.272,0.234,0.573,0.35,0.924,0.35h8.432c0.392,0,0.703-0.111,0.954-0.34c0.25-0.232,0.37-0.5,0.37-0.813V34.535l8.755,14.07c0.212,0.334,0.484,0.625,0.813,0.871c0.297,0.227,0.717,0.338,1.262,0.338h3.65c0.549,0,0.964-0.109,1.264-0.336c0.324-0.246,0.599-0.539,0.817-0.877l8.679-14.08v24.401c0,0.311,0.131,0.57,0.399,0.803c0.274,0.234,0.6,0.35,0.999,0.35h8.357c0.396,0,0.721-0.115,0.992-0.348c0.271-0.234,0.399-0.494,0.399-0.805v-39.7c0-0.344-0.126-0.609-0.39-0.824C256.988,18.182,256.659,18.076,256.255,18.076z"/>
                <path d="M275.119,59.735c0.348-0.326,0.48-0.551,0.529-0.684l2.783-6.491h19.35l2.85,6.476c0.058,0.148,0.195,0.371,0.565,0.689c0.269,0.232,0.698,0.35,1.278,0.35h8.643c0.303,0,0.559-0.092,0.779-0.285c0.225-0.191,0.334-0.395,0.334-0.619c0-0.143-0.031-0.268-0.098-0.381l-16.455-39.255c-0.131-0.408-0.376-0.738-0.764-1.035c-0.368-0.287-0.883-0.424-1.57-0.424h-10.4c-0.681,0-1.208,0.141-1.565,0.422c-0.388,0.299-0.633,0.627-0.754,1.01l-16.52,39.245c-0.024,0.098-0.044,0.252-0.044,0.418c0,0.225,0.108,0.426,0.329,0.619c0.223,0.193,0.455,0.285,0.714,0.285h8.646C274.412,60.075,274.873,59.96,275.119,59.735z M288.142,26.885l7.148,17.635h-14.292L288.142,26.885z"/>
                <path d="M52.913,18.484h-32.26c-0.976,0-1.771,0.705-1.771,1.572v6.678c0,0.871,0.796,1.578,1.771,1.578h32.26c9.396,0,17.039,6.631,17.039,14.779s-7.644,14.78-17.039,14.78H30.216v-9.87l26.462-0.041c1.033,0,1.876-0.746,1.876-1.668v-6.445c0-0.92-0.841-1.668-1.874-1.668H20.767c-0.979,0-1.773,0.705-1.773,1.57v46.065c0,0.869,0.795,1.576,1.773,1.576H56.68c1.033,0,1.874-0.75,1.874-1.67v-6.482c0-0.918-0.841-1.666-1.874-1.666l-26.485-0.012l0.021-9.861h22.696c15.583,0,28.263-11.039,28.263-24.608C81.175,29.523,68.496,18.484,52.913,18.484z"/>
                <path d="M107.203,84.341h-11.41v-5.324h10.422c0.085,0,0.103-0.016,0.122-0.035c0.049-0.049,0.051-0.082,0.051-0.109v-2.584c0-0.061-0.016-0.1-0.061-0.145c-0.016-0.018-0.039-0.035-0.112-0.035H95.792v-5.193h11.145c0.09,0,0.114-0.023,0.129-0.035c0.021-0.02,0.047-0.039,0.047-0.115v-2.787c0-0.072-0.02-0.092-0.042-0.113c-0.011-0.006-0.034-0.027-0.134-0.027H91.572c-0.097,0-0.125,0.021-0.139,0.033c-0.014,0.01,0.031,0.025-0.031,0.107v19.301c0,0.045,0.006,0.061,0.045,0.098c0.026,0.023,0.041,0.043,0.125,0.043h15.631c0.072,0,0.104-0.021,0.126-0.041c0.048-0.049,0.048-0.08,0.048-0.1v-2.793c0-0.07-0.021-0.092-0.046-0.115C107.317,84.358,107.298,84.341,107.203,84.341z"/>
                <path d="M130.125,67.837h-3.95c-0.097,0-0.13,0.025-0.144,0.033c-0.004,0.008-0.027,0.025-0.027,0.107v13.246l-9.225-13.102c-0.024-0.033-0.06-0.09-0.227-0.244c0.004,0.002,0-0.041-0.347-0.041h-3.488c-0.09,0-0.121,0.02-0.146,0.037c-0.011,0.012-0.027,0.031-0.027,0.104v19.301c0,0.025,0,0.045,0.055,0.1c0.018,0.021,0.039,0.041,0.119,0.041h3.95c0.082,0,0.101-0.02,0.12-0.037c0.036-0.033,0.05-0.063,0.05-0.104V74.505l9.221,12.615c0.029,0.043,0.1,0.111,0.243,0.246c0.014,0.016,0.098,0.053,0.296,0.053h3.527c0.082,0,0.098-0.02,0.105-0.027c0.052-0.049,0.067-0.076,0.067-0.148V67.978c0-0.072-0.016-0.092-0.039-0.113C130.252,67.862,130.222,67.837,130.125,67.837z"/>
                <path d="M154.63,76.647h-8.285c-0.07,0-0.104,0.014-0.136,0.049c-0.014,0.016-0.035,0.051-0.035,0.129v2.197c0,0.072,0.016,0.107,0.055,0.143c0.013,0.012,0.04,0.029,0.116,0.029h3.741v0.869c0,0.965-0.221,1.775-0.663,2.41c-0.44,0.637-1.049,1.121-1.819,1.428c-0.718,0.287-1.543,0.436-2.447,0.436c-1.409,0-2.565-0.359-3.427-1.074c-0.871-0.713-1.356-1.863-1.438-3.416c-0.062-1.752-0.062-2.908,0-4.611c0.082-1.482,0.558-2.586,1.407-3.281c0.845-0.693,1.975-1.045,3.36-1.045c0.941,0,1.724,0.145,2.317,0.43c0.6,0.273,1.07,0.602,1.426,0.996c0.334,0.361,0.582,0.711,0.761,1.059c0.012,0.016,0.042,0.041,0.047,0.047c0.022,0.012,0.073,0.029,0.223,0.029l4.878-0.033c-0.023-0.592-0.239-1.223-0.643-1.867c-0.416-0.662-1.027-1.283-1.821-1.844c-0.798-0.57-1.81-1.031-3.005-1.375c-1.212-0.342-2.619-0.514-4.183-0.514c-1.951,0-3.652,0.289-5.063,0.863c-1.382,0.559-2.474,1.381-3.245,2.457c-0.765,1.072-1.191,2.41-1.271,3.977c-0.021,0.852-0.033,1.459-0.033,2.416c0,0.953,0.012,1.559,0.033,2.404c0.082,1.6,0.507,2.977,1.268,4.076c0.745,1.09,1.818,1.934,3.199,2.506c1.421,0.584,3.145,0.883,5.113,0.883c1.972,0,3.728-0.307,5.214-0.914c1.443-0.592,2.576-1.453,3.355-2.559c0.782-1.1,1.179-2.459,1.179-4.037v-3.084c0-0.074-0.021-0.109-0.059-0.146C154.735,76.669,154.708,76.647,154.63,76.647z"/>
                <path d="M164.472,67.837h-4.411c-0.087,0-0.12,0.02-0.146,0.037c-0.002,0.004-0.021,0.021-0.021,0.104v19.301c0,0.033,0.002,0.053,0.047,0.098c0.025,0.023,0.045,0.043,0.12,0.043h4.411c0.066,0,0.109-0.016,0.157-0.053c0.047-0.049,0.047-0.072,0.047-0.088V67.978c0-0.057-0.014-0.08-0.043-0.107C164.616,67.858,164.57,67.837,164.472,67.837z"/>
                <path d="M188.123,67.837h-3.943c-0.098,0-0.131,0.025-0.145,0.033c-0.003,0.004-0.025,0.025-0.025,0.107v13.246l-9.229-13.102c-0.025-0.033-0.055-0.086-0.224-0.248c0,0-0.093-0.037-0.347-0.037h-3.488c-0.098,0-0.125,0.021-0.142,0.033c-0.012,0.014-0.031,0.027-0.031,0.107v19.301c0,0.033,0.004,0.053,0.051,0.1c0.022,0.021,0.038,0.041,0.122,0.041h3.947c0.084,0,0.1-0.02,0.131-0.041c0.037-0.039,0.041-0.072,0.041-0.1V74.505l9.219,12.615c0.008,0.012,0.068,0.078,0.242,0.242c0.02,0.02,0.104,0.057,0.304,0.057h3.517c0.083,0,0.103-0.02,0.12-0.037c0.036-0.031,0.055-0.059,0.055-0.139V67.978c0-0.082-0.019-0.1-0.033-0.113C188.25,67.856,188.217,67.837,188.123,67.837z"/>
                <path d="M210.01,84.341h-11.414v-5.324h10.425c0.081,0,0.101-0.02,0.112-0.033c0.048-0.041,0.056-0.072,0.056-0.111v-2.584c0-0.074-0.02-0.107-0.05-0.135c-0.023-0.027-0.039-0.045-0.118-0.045h-10.425v-5.193h11.149c0.088,0,0.115-0.025,0.131-0.037c0.018-0.018,0.038-0.033,0.038-0.113v-2.787c0-0.082-0.019-0.1-0.034-0.113c-0.014-0.008-0.047-0.027-0.135-0.027h-15.371c-0.092,0-0.121,0.025-0.133,0.033c-0.016,0.016-0.037,0.031-0.037,0.107v19.301c0,0.033,0.006,0.053,0.055,0.098c0.021,0.023,0.039,0.043,0.115,0.043h15.636c0.078,0,0.1-0.025,0.113-0.037c0.054-0.049,0.056-0.076,0.056-0.104v-2.793c0-0.076-0.021-0.096-0.04-0.115C210.125,84.358,210.102,84.341,210.01,84.341z"/>
                <path d="M231.03,84.341h-11.409v-5.324h10.418c0.09,0,0.105-0.016,0.125-0.035c0.045-0.049,0.051-0.082,0.051-0.109v-2.584c0-0.061-0.018-0.1-0.061-0.145c-0.016-0.018-0.037-0.035-0.115-0.035h-10.418v-5.193h11.144c0.094,0,0.122-0.025,0.134-0.037c0.02-0.018,0.04-0.033,0.04-0.113v-2.787c0-0.076-0.017-0.092-0.034-0.107c-0.018-0.012-0.043-0.033-0.14-0.033h-15.361c-0.097,0-0.124,0.021-0.142,0.033c-0.014,0.016-0.032,0.031-0.032,0.107v19.301c0,0.033,0.003,0.053,0.05,0.1c0.021,0.021,0.039,0.041,0.124,0.041h15.627c0.073,0,0.101-0.021,0.124-0.041c0.051-0.049,0.051-0.08,0.051-0.1v-2.793c0-0.072-0.02-0.096-0.045-0.119C231.152,84.358,231.128,84.341,231.03,84.341z"/>
                <path d="M250.178,79.222c1.114-0.453,2.02-1.119,2.691-1.994c0.665-0.869,1.004-1.947,1.004-3.225c0-1.955-0.734-3.48-2.188-4.535c-1.496-1.084-3.621-1.631-6.311-1.631h-8.954c-0.085,0-0.119,0.02-0.145,0.037c-0.002,0.004-0.023,0.021-0.023,0.104v19.301c0,0.033,0.004,0.053,0.054,0.1c0.018,0.021,0.036,0.041,0.114,0.041h4.251c0.082,0,0.117-0.025,0.141-0.047c0.061-0.053,0.061-0.074,0.061-0.094v-7.191h4.401l3.934,6.848c0.065,0.117,0.168,0.244,0.314,0.381c0.059,0.051,0.2,0.104,0.459,0.104h4.376v0.395l0.005-0.395l-4.84-7.934L250.178,79.222z M248.079,76.214c-0.644,0.566-1.576,0.852-2.771,0.852h-4.435v-6.303h4.435c1.254,0,2.2,0.303,2.824,0.9c0.611,0.588,0.92,1.354,0.92,2.281C249.052,74.886,248.724,75.646,248.079,76.214z"/>
                <path d="M263.94,67.837h-4.41c-0.046,0-0.101,0.002-0.129,0.027c-0.028,0.021-0.042,0.033-0.042,0.113v19.301c0,0.041,0.006,0.059,0.044,0.092c0.034,0.033,0.048,0.049,0.127,0.049h4.41c0.077,0,0.116-0.021,0.149-0.053c0.053-0.049,0.053-0.072,0.053-0.088V67.978c0-0.057-0.014-0.076-0.045-0.105C264.078,67.858,264.035,67.837,263.94,67.837z"/>
                <path d="M287.223,67.837h-3.946c-0.096,0-0.123,0.021-0.141,0.033c-0.012,0.014-0.031,0.033-0.031,0.107v13.246l-9.227-13.102c-0.021-0.039-0.057-0.09-0.223-0.242c0,0-0.08-0.043-0.348-0.043h-3.491c-0.091,0-0.12,0.021-0.138,0.033c-0.011,0.014-0.03,0.027-0.03,0.107v19.301c0,0.037,0.006,0.055,0.05,0.098c0.021,0.023,0.041,0.043,0.118,0.043h3.955c0.079,0,0.099-0.02,0.114-0.037c0.047-0.039,0.057-0.064,0.057-0.104V74.505l9.215,12.615c0.031,0.029,0.1,0.104,0.247,0.246c0.006,0.004,0.071,0.053,0.307,0.053h3.512c0.086,0,0.1-0.02,0.119-0.037c0.034-0.031,0.056-0.059,0.056-0.139V67.978c0-0.08,0.018-0.094-0.034-0.107C287.35,67.858,287.323,67.837,287.223,67.837z"/>
                <path d="M312.053,76.647h-8.285c-0.07,0-0.104,0.014-0.136,0.049c-0.014,0.016-0.035,0.051-0.035,0.129v2.197c0,0.072,0.016,0.107,0.055,0.143c0.013,0.012,0.04,0.029,0.116,0.029h3.741v0.869c0,0.965-0.221,1.775-0.663,2.41c-0.44,0.637-1.049,1.121-1.819,1.428c-0.718,0.287-1.543,0.436-2.447,0.436c-1.409,0-2.565-0.359-3.427-1.074c-0.871-0.713-1.356-1.863-1.438-3.416c-0.062-1.752-0.062-2.908,0-4.611c0.082-1.482,0.558-2.586,1.407-3.281c0.845-0.693,1.975-1.045,3.36-1.045c0.941,0,1.724,0.145,2.317,0.43c0.6,0.273,1.07,0.602,1.426,0.996c0.334,0.361,0.582,0.711,0.761,1.059c0.012,0.016,0.042,0.041,0.047,0.047c0.022,0.012,0.073,0.029,0.223,0.029l4.878-0.033c-0.023-0.592-0.239-1.223-0.643-1.867c-0.416-0.662-1.027-1.283-1.821-1.844c-0.798-0.57-1.81-1.031-3.005-1.375c-1.212-0.342-2.619-0.514-4.183-0.514c-1.951,0-3.652,0.289-5.063,0.863c-1.382,0.559-2.474,1.381-3.245,2.457c-0.765,1.072-1.191,2.41-1.271,3.977c-0.021,0.852-0.033,1.459-0.033,2.416c0,0.953,0.012,1.559,0.033,2.404c0.082,1.6,0.507,2.977,1.268,4.076c0.745,1.09,1.818,1.934,3.199,2.506c1.421,0.584,3.145,0.883,5.113,0.883c1.972,0,3.728-0.307,5.214-0.914c1.443-0.592,2.576-1.453,3.355-2.559c0.782-1.1,1.179-2.459,1.179-4.037v-3.084c0-0.074-0.021-0.109-0.059-0.146C312.158,76.669,312.131,76.647,312.053,76.647z"/>
            </g>
        </symbol>

        <symbol id="logo_neocharge" viewBox="0 0 2146 399.04">
            <g fill="#003DA6">
                <path d="M75.273,315.458c-2.433,0-4.42-0.771-5.962-2.318c-1.548-1.543-2.319-3.529-2.319-5.963V91.863c0-2.428,0.771-4.415,2.319-5.963c1.542-1.542,3.529-2.318,5.962-2.318h30.145c3.313,0,5.74,0.776,7.287,2.318c1.543,1.548,2.536,2.764,2.981,3.644l88.444,138.133V91.863c0-2.428,0.771-4.415,2.319-5.963c1.542-1.542,3.421-2.318,5.631-2.318h33.788c2.428,0,4.415,0.776,5.962,2.318c1.543,1.548,2.319,3.535,2.319,5.963v215.313c0,2.21-0.776,4.141-2.319,5.797c-1.547,1.656-3.534,2.484-5.962,2.484h-30.476c-3.313,0-5.688-0.828-7.122-2.484c-1.438-1.656-2.484-2.814-3.146-3.479L117.012,175.67v131.507c0,2.434-0.776,4.42-2.319,5.963c-1.547,1.547-3.534,2.318-5.962,2.318H75.273z"/>
                <path d="M311.456,315.458c-2.433,0-4.42-0.771-5.962-2.318c-1.548-1.543-2.319-3.529-2.319-5.963V91.863c0-2.428,0.771-4.415,2.319-5.963c1.542-1.542,3.529-2.318,5.962-2.318h150.058c2.428,0,4.415,0.776,5.963,2.318c1.542,1.548,2.318,3.535,2.318,5.963v26.5c0,2.21-0.776,4.089-2.318,5.631c-1.548,1.548-3.535,2.319-5.963,2.319H354.188v52.007h100.038c2.427,0,4.415,0.776,5.962,2.318c1.543,1.548,2.319,3.535,2.319,5.963v24.513c0,2.21-0.776,4.089-2.319,5.632c-1.547,1.547-3.535,2.318-5.962,2.318H354.188v53.663h109.976c2.428,0,4.415,0.775,5.963,2.318c1.542,1.547,2.318,3.535,2.318,5.963v26.168c0,2.434-0.776,4.42-2.318,5.963c-1.548,1.547-3.535,2.318-5.963,2.318H311.456z"/>
                <path d="M601.963,318.771c-20.098,0-37.432-3.313-52.007-9.938s-25.952-16.613-34.119-29.979c-8.173-13.357-12.588-30.195-13.25-50.515c-0.223-9.493-0.331-18.934-0.331-28.322c0-9.384,0.108-18.934,0.331-28.653c0.662-19.876,5.134-36.604,13.416-50.186c8.281-13.581,19.761-23.793,34.45-30.641c14.684-6.843,31.852-10.269,51.51-10.269c19.43,0,36.489,3.426,51.178,10.269c14.684,6.848,26.221,17.06,34.616,30.641c8.39,13.582,12.805,30.31,13.25,50.186c0.44,9.72,0.662,19.27,0.662,28.653c0,9.389-0.222,18.829-0.662,28.322c-0.662,20.319-5.083,37.157-13.25,50.515c-8.173,13.365-19.544,23.354-34.119,29.979S621.838,318.771,601.963,318.771z M601.963,276.04c12.805,0,23.353-3.918,31.634-11.76c8.281-7.836,12.64-20.373,13.085-37.597c0.439-9.716,0.662-18.825,0.662-27.329c0-8.499-0.223-17.499-0.662-26.997c-0.223-11.479-2.319-20.869-6.294-28.156c-3.975-7.288-9.224-12.64-15.734-16.065c-6.517-3.422-14.078-5.135-22.69-5.135c-8.613,0-16.231,1.713-22.856,5.135c-6.625,3.426-11.874,8.777-15.734,16.065c-3.867,7.287-6.02,16.677-6.46,28.156c-0.223,9.498-0.331,18.498-0.331,26.997c0,8.504,0.108,17.613,0.331,27.329c0.662,17.224,5.077,29.761,13.25,37.597C578.33,272.122,588.93,276.04,601.963,276.04z"/>
                <path d="M834.828,318.771c-20.76,0-38.373-3.479-52.834-10.434c-14.467-6.957-25.673-17.111-33.623-30.477c-7.949-13.357-12.37-29.646-13.25-48.858c-0.223-9.053-0.331-18.768-0.331-29.15c0-10.378,0.108-20.315,0.331-29.813c0.88-18.99,5.353-35.165,13.416-48.529c8.059-13.358,19.378-23.57,33.953-30.641c14.575-7.064,32.018-10.6,52.338-10.6c14.793,0,28.266,1.879,40.413,5.631c12.143,3.758,22.634,9.167,31.469,16.231c8.83,7.07,15.678,15.352,20.538,24.844c4.854,9.498,7.505,20.098,7.95,31.801c0,1.987-0.72,3.644-2.153,4.969c-1.438,1.325-3.146,1.987-5.135,1.987h-37.763c-2.649,0-4.751-0.662-6.294-1.987c-1.547-1.325-2.764-3.53-3.644-6.625c-3.313-13.027-8.835-21.972-16.563-26.832c-7.732-4.854-17.339-7.287-28.819-7.287c-13.695,0-24.513,3.758-32.462,11.263c-7.95,7.51-12.257,19.989-12.919,37.432c-0.663,18.11-0.663,36.66,0,55.65c0.662,17.446,4.969,29.927,12.919,37.431c7.949,7.51,18.767,11.264,32.462,11.264c11.48,0,21.144-2.484,28.985-7.453c7.836-4.969,13.302-13.855,16.396-26.666c0.88-3.313,2.097-5.574,3.644-6.791c1.543-1.211,3.645-1.821,6.294-1.821h37.763c1.988,0,3.696,0.662,5.135,1.987c1.434,1.324,2.153,2.98,2.153,4.969c-0.445,11.707-3.096,22.307-7.95,31.799c-4.86,9.498-11.708,17.779-20.538,24.846c-8.835,7.068-19.326,12.479-31.469,16.23C863.094,316.892,849.621,318.771,834.828,318.771z"/>
                <path d="M980.578,315.458c-2.432,0-4.42-0.771-5.963-2.318c-1.547-1.543-2.318-3.529-2.318-5.963V91.863c0-2.428,0.771-4.415,2.318-5.963c1.543-1.542,3.531-2.318,5.963-2.318h36.107c2.428,0,4.414,0.776,5.963,2.318c1.541,1.548,2.318,3.535,2.318,5.963v82.813h89.77V91.863c0-2.428,0.771-4.415,2.318-5.963c1.543-1.542,3.529-2.318,5.963-2.318h36.105c2.428,0,4.416,0.776,5.963,2.318c1.543,1.548,2.32,3.535,2.32,5.963v215.313c0,2.434-0.777,4.42-2.32,5.963c-1.547,1.547-3.535,2.318-5.963,2.318h-36.105c-2.434,0-4.42-0.771-5.963-2.318c-1.547-1.543-2.318-3.529-2.318-5.963v-85.462h-89.77v85.462c0,2.434-0.777,4.42-2.318,5.963c-1.549,1.547-3.535,2.318-5.963,2.318H980.578z"/>
                <path d="M1202.85,315.458c-1.988,0-3.645-0.713-4.969-2.152c-1.326-1.434-1.988-3.033-1.988-4.803c0-1.104,0.109-2.098,0.332-2.982l78.838-212.995c0.662-2.428,1.986-4.523,3.975-6.294c1.988-1.765,4.746-2.649,8.281-2.649h42.4c3.529,0,6.293,0.885,8.281,2.649c1.988,1.771,3.313,3.866,3.975,6.294l78.838,212.995c0.219,0.885,0.332,1.879,0.332,2.982c0,1.77-0.662,3.369-1.988,4.803c-1.324,1.439-2.98,2.152-4.969,2.152h-34.449c-3.313,0-5.746-0.771-7.287-2.318c-1.549-1.543-2.543-2.98-2.982-4.307l-14.244-37.1h-93.412l-14.244,37.1c-0.445,1.326-1.439,2.764-2.982,4.307c-1.547,1.547-3.975,2.318-7.287,2.318H1202.85z M1274.068,229.002h68.568l-34.119-95.401L1274.068,229.002z"/>
                <path d="M1457.912,315.458c-2.434,0-4.42-0.771-5.963-2.318c-1.547-1.543-2.318-3.529-2.318-5.963V91.863c0-2.428,0.771-4.415,2.318-5.963c1.543-1.542,3.529-2.318,5.963-2.318h87.781c27.604,0,49.357,6.351,65.258,19.047c15.9,12.701,23.85,30.972,23.85,54.822c0,16.123-3.867,29.596-11.594,40.413c-7.732,10.822-18.111,18.882-31.139,24.182l46.707,82.813c0.662,1.324,0.994,2.541,0.994,3.645c0,1.77-0.662,3.369-1.988,4.803c-1.324,1.439-2.98,2.152-4.969,2.152h-36.768c-3.977,0-6.957-1.045-8.945-3.146c-1.986-2.096-3.426-4.027-4.305-5.797l-40.414-75.856h-40.082v76.519c0,2.434-0.775,4.42-2.318,5.963c-1.547,1.547-3.535,2.318-5.963,2.318H1457.912z M1502.299,188.589h42.4c12.143,0,21.145-2.759,26.998-8.281c5.848-5.518,8.777-13.25,8.777-23.188s-2.871-17.774-8.611-23.52c-5.746-5.739-14.799-8.612-27.164-8.612h-42.4V188.589z"/>
                <path d="M1767.633,318.771c-20.76,0-38.482-3.479-53.166-10.434c-14.689-6.957-26.061-17.111-34.119-30.477c-8.063-13.357-12.422-29.533-13.084-48.527c-0.223-9.492-0.332-19.652-0.332-30.476c0-10.817,0.109-21.086,0.332-30.807c0.662-18.55,5.021-34.336,13.084-47.369c8.059-13.027,19.545-23.021,34.451-29.978c14.906-6.957,32.514-10.435,52.834-10.435c16.34,0,30.693,2.102,43.063,6.294c12.365,4.197,22.744,9.663,31.139,16.396c8.391,6.739,14.793,14.078,19.213,22.028c4.414,7.95,6.734,15.569,6.957,22.856c0,1.987-0.664,3.701-1.988,5.135c-1.326,1.438-3.096,2.153-5.301,2.153h-41.074c-2.211,0-3.924-0.44-5.135-1.325c-1.217-0.88-2.268-2.205-3.146-3.976c-1.549-3.975-4.033-8.002-7.453-12.091c-3.428-4.083-8.008-7.562-13.748-10.434c-5.744-2.868-13.25-4.307-22.525-4.307c-13.912,0-24.9,3.644-32.959,10.932c-8.064,7.287-12.422,19.212-13.084,35.774c-0.664,18.996-0.664,38.317,0,57.97c0.662,17.225,5.133,29.596,13.416,37.1c8.281,7.51,19.377,11.264,33.289,11.264c9.053,0,17.17-1.6,24.348-4.805c7.174-3.197,12.861-8.223,17.061-15.07c4.191-6.844,6.293-15.57,6.293-26.169v-8.281h-36.105c-2.211,0-4.09-0.828-5.633-2.484c-1.547-1.656-2.318-3.587-2.318-5.797v-21.201c0-2.427,0.771-4.415,2.318-5.962c1.543-1.543,3.422-2.319,5.633-2.319h81.156c2.428,0,4.414,0.776,5.963,2.319c1.541,1.547,2.318,3.535,2.318,5.962v36.107c0,18.995-4.141,35.226-12.422,48.692c-8.281,13.473-20.098,23.799-35.445,30.973C1806.111,315.185,1788.172,318.771,1767.633,318.771z"/>
                <path d="M1918.02,315.458c-2.434,0-4.42-0.771-5.963-2.318c-1.547-1.543-2.318-3.529-2.318-5.963V91.863c0-2.428,0.771-4.415,2.318-5.963c1.543-1.542,3.529-2.318,5.963-2.318h150.057c2.428,0,4.416,0.776,5.963,2.318c1.543,1.548,2.318,3.535,2.318,5.963v26.5c0,2.21-0.775,4.089-2.318,5.631c-1.547,1.548-3.535,2.319-5.963,2.319H1960.75v52.007h100.039c2.428,0,4.414,0.776,5.963,2.318c1.543,1.548,2.318,3.535,2.318,5.963v24.513c0,2.21-0.775,4.089-2.318,5.632c-1.549,1.547-3.535,2.318-5.963,2.318H1960.75v53.663h109.977c2.428,0,4.416,0.775,5.963,2.318c1.543,1.547,2.318,3.535,2.318,5.963v26.168c0,2.434-0.775,4.42-2.318,5.963c-1.547,1.547-3.535,2.318-5.963,2.318H1918.02z"/>
            </g>
        </symbol>
    </defs>

    <g>
        <path d="M0,540 L0,595 L315,595 L313,592 L169,592 L136,550 L8,550 L0,540 Z M840,540 L831,550 L703,550 L670,592 L528,592 L526,595 L840,595 L840,540 Z" fill="#669db8"/>
        
        <path d="M0,0 L0,52 L9,41 L197,41 L228,24 L612,24 L643,41 L831,41 L840,52 L840,0 Z" fill="#669db8"/>
        
        <path d="M295,0 L545,0 L520,32 L320,32 Z" fill="#ffffff"/>
        
        <rect x="0" y="0" width="2" height="595" fill="#669db8"/>
        <rect x="838" y="0" width="2" height="595" fill="#669db8"/>
    </g>

    <use xlink:href="#logo_prime" x="25" y="10" width="130" height="32" />

    <use xlink:href="#logo_neocharge" x="325" y="5" width="190" height="22" />

</svg>